<svg width="48" height="48" viewBox="0 0 48 48" fill="none" xmlns="http://www.w3.org/2000/svg">
<path d="M13.563 29.4809C13.9772 28.7635 14.8946 28.5177 15.612 28.9319L21.7363 32.4677C22.4537 32.8819 22.6995 33.7993 22.2853 34.5168L16.9816 43.7031C16.3635 44.7736 14.7886 44.679 14.3031 43.5423L13.4508 41.547C13.1889 40.9339 12.5538 40.5672 11.8919 40.647L9.73771 40.9065C8.51051 41.0544 7.64121 39.7377 8.25924 38.6673L13.563 29.4809Z" fill="#1B92E7"/>
<path d="M35.1958 29.4809C34.7816 28.7635 33.8642 28.5177 33.1468 28.9319L27.0225 32.4677C26.3051 32.8819 26.0593 33.7993 26.4735 34.5168L31.7772 43.7031C32.3953 44.7736 33.9701 44.679 34.4557 43.5423L35.308 41.547C35.5699 40.9339 36.205 40.5672 36.8669 40.647L39.0211 40.9065C40.2483 41.0544 41.1176 39.7377 40.4995 38.6673L35.1958 29.4809Z" fill="#1B92E7"/>
<path d="M22.6377 2.47168C23.4428 1.85905 24.5572 1.85905 25.3623 2.47168L26.8896 3.63379C27.2106 3.87797 27.6241 3.9655 28.0166 3.87305L29.8848 3.43262C30.8694 3.2004 31.8877 3.65396 32.374 4.54102L33.2969 6.22363C33.4908 6.57747 33.833 6.82624 34.2295 6.90137L36.1143 7.25879C37.1081 7.44711 37.8549 8.27517 37.9385 9.2832L38.0967 11.1963C38.13 11.5983 38.3413 11.9645 38.6729 12.1943L40.25 13.2871C41.0813 13.8634 41.4255 14.924 41.0918 15.8789L40.458 17.6904C40.3248 18.0713 40.3697 18.492 40.5791 18.8369L41.5752 20.4775C42.1001 21.3422 41.9834 22.451 41.29 23.1875L39.9746 24.585C39.6983 24.8787 39.5672 25.2806 39.6182 25.6807L39.8613 27.584C39.9894 28.5875 39.4321 29.5534 38.499 29.9443L36.7295 30.6855C36.3574 30.8414 36.0742 31.1557 35.958 31.542L35.4053 33.3799C35.1141 34.3486 34.2124 35.0037 33.2012 34.9814L31.2822 34.9395C30.8788 34.9305 30.4928 35.1025 30.2295 35.4082L28.9775 36.8623C28.3174 37.6289 27.2264 37.8606 26.3115 37.4287L24.5762 36.6094C24.2114 36.4373 23.7886 36.4373 23.4238 36.6094L21.6885 37.4287C20.7736 37.8606 19.6826 37.6289 19.0225 36.8623L17.7705 35.4082C17.5072 35.1025 17.1212 34.9305 16.7178 34.9395L14.7988 34.9814C13.7876 35.0037 12.8859 34.3486 12.5947 33.3799L12.042 31.542C11.9258 31.1557 11.6426 30.8414 11.2705 30.6855L9.50098 29.9443C8.56791 29.5534 8.01065 28.5875 8.13867 27.584L8.38184 25.6807C8.43283 25.2806 8.30173 24.8787 8.02539 24.585L6.70996 23.1875C6.01662 22.451 5.89993 21.3422 6.4248 20.4775L7.4209 18.8369C7.63035 18.492 7.67516 18.0713 7.54199 17.6904L6.9082 15.8789C6.57451 14.924 6.91869 13.8634 7.75 13.2871L9.32715 12.1943C9.6587 11.9645 9.86998 11.5983 9.90332 11.1963L10.0615 9.2832C10.1451 8.27517 10.8919 7.44711 11.8857 7.25879L13.7705 6.90137C14.167 6.82624 14.5092 6.57747 14.7031 6.22363L15.626 4.54102C16.1123 3.65396 17.1306 3.2004 18.1152 3.43262L19.9834 3.87305C20.3759 3.9655 20.7894 3.87797 21.1104 3.63379L22.6377 2.47168Z" fill="#1B92E7" stroke="#FAFAFA" stroke-width="0.9"/>
<g filter="url(#filter0_d_1174_2639)">
<circle cx="23.9996" cy="20" r="13.0909" fill="white"/>
</g>
<g filter="url(#filter1_i_1174_2639)">
<path d="M23.1976 13.3889C23.5316 12.7344 24.4668 12.7344 24.8008 13.3889L26.2437 16.2163C26.3745 16.4726 26.6199 16.6509 26.904 16.696L30.0389 17.1946C30.7646 17.31 31.0536 18.1995 30.5344 18.7194L28.2912 20.9654C28.0879 21.169 27.9942 21.4575 28.039 21.7416L28.5336 24.8771C28.6481 25.603 27.8915 26.1527 27.2365 25.8195L24.4073 24.3803C24.1509 24.2498 23.8475 24.2498 23.5911 24.3803L20.7619 25.8195C20.1069 26.1527 19.3503 25.603 19.4648 24.8771L19.9594 21.7416C20.0042 21.4575 19.9105 21.169 19.7072 20.9654L17.4641 18.7194C16.9448 18.1995 17.2338 17.31 17.9595 17.1946L21.0944 16.696C21.3785 16.6509 21.6239 16.4726 21.7547 16.2163L23.1976 13.3889Z" fill="#1B92E7"/>
</g>
<defs>
<filter id="filter0_d_1174_2639" x="10.0087" y="6.90906" width="27.9816" height="27.9818" filterUnits="userSpaceOnUse" color-interpolation-filters="sRGB">
<feFlood flood-opacity="0" result="BackgroundImageFix"/>
<feColorMatrix in="SourceAlpha" type="matrix" values="0 0 0 0 0 0 0 0 0 0 0 0 0 0 0 0 0 0 127 0" result="hardAlpha"/>
<feOffset dy="0.9"/>
<feGaussianBlur stdDeviation="0.45"/>
<feComposite in2="hardAlpha" operator="out"/>
<feColorMatrix type="matrix" values="0 0 0 0 0 0 0 0 0 0 0 0 0 0 0 0 0 0 0.1 0"/>
<feBlend mode="normal" in2="BackgroundImageFix" result="effect1_dropShadow_1174_2639"/>
<feBlend mode="normal" in="SourceGraphic" in2="effect1_dropShadow_1174_2639" result="shape"/>
</filter>
<filter id="filter1_i_1174_2639" x="17.1997" y="12.8981" width="14.4986" height="13.9211" filterUnits="userSpaceOnUse" color-interpolation-filters="sRGB">
<feFlood flood-opacity="0" result="BackgroundImageFix"/>
<feBlend mode="normal" in="SourceGraphic" in2="BackgroundImageFix" result="shape"/>
<feColorMatrix in="SourceAlpha" type="matrix" values="0 0 0 0 0 0 0 0 0 0 0 0 0 0 0 0 0 0 127 0" result="hardAlpha"/>
<feOffset dx="0.9" dy="0.9"/>
<feGaussianBlur stdDeviation="0.45"/>
<feComposite in2="hardAlpha" operator="arithmetic" k2="-1" k3="1"/>
<feColorMatrix type="matrix" values="0 0 0 0 0 0 0 0 0 0 0 0 0 0 0 0 0 0 0.1 0"/>
<feBlend mode="normal" in2="shape" result="effect1_innerShadow_1174_2639"/>
</filter>
</defs>
</svg>
