<svg width="49" height="48" viewBox="0 0 49 48" fill="none" xmlns="http://www.w3.org/2000/svg">
<path d="M42.7259 13.3279C42.4501 12.8975 41.9741 12.6372 41.463 12.6372H32.1C30.9143 12.6372 30.1973 13.9481 30.837 14.9465L33.731 19.4628C34.0068 19.8933 34.4828 20.1536 34.994 20.1536H44.3569C45.5427 20.1536 46.2596 18.8427 45.6199 17.8443L42.7259 13.3279Z" fill="#0C73C7"/>
<path d="M18.1528 12.6372H40.9317C41.7602 12.6372 42.4317 13.3088 42.4317 14.1372V35.5654C42.4317 36.3938 41.7602 37.0654 40.9317 37.0654H18.1528V12.6372Z" fill="#62B2ED"/>
<path d="M6.94678 14.1372C6.94678 13.3088 7.61835 12.6372 8.44678 12.6372H18.1524V37.0654H8.44678C7.61835 37.0654 6.94678 36.3938 6.94678 35.5654V14.1372Z" fill="#0C73C7"/>
<path d="M33.4554 7.43531C33.1744 7.1564 32.7946 6.99988 32.3987 6.99988H3.97391C2.63488 6.99988 1.96685 8.62111 2.91718 9.56445L5.574 12.2017C5.85498 12.4806 6.23483 12.6372 6.63073 12.6372H35.0555C36.3945 12.6372 37.0626 11.0159 36.1122 10.0726L33.4554 7.43531Z" fill="#62B2ED"/>
<path d="M5.36729 13.3718C5.63749 12.9164 6.12779 12.6372 6.65734 12.6372H15.5182C16.6808 12.6372 17.4014 13.9027 16.8082 14.9026L14.1287 19.4189C13.8585 19.8744 13.3682 20.1536 12.8386 20.1536H3.97781C2.81518 20.1536 2.09455 18.8881 2.68777 17.8882L5.36729 13.3718Z" fill="#004596"/>
<path d="M42.8642 11.8799C42.5974 12.3481 42.0999 12.6372 41.561 12.6372H18.1536L20.9344 7.75728C21.2012 7.28904 21.6987 6.99993 22.2376 6.99993H43.0638C44.2147 6.99993 44.9369 8.24261 44.3671 9.24258L42.8642 11.8799Z" fill="#0C73C7"/>
<path d="M38.8657 20.8792L41.0789 25.6418C41.2449 26.0037 41.5689 26.2477 41.9404 26.3066L47.0545 27.0975C47.9951 27.2406 48.3666 28.4691 47.6868 29.1675L43.9876 32.9877C43.7189 33.2654 43.5924 33.6693 43.6557 34.0648L44.5014 39.2986C44.6753 40.3589 43.624 41.1666 42.7309 40.6702L38.2887 38.1963C37.9567 38.0112 37.5615 38.0112 37.2216 38.1963L32.7873 40.6702C31.8863 41.1751 30.835 40.3589 31.0089 39.2986L31.8547 34.0732C31.9179 33.6777 31.7914 33.2738 31.5227 32.9961L27.8393 29.1675C27.1595 28.4691 27.531 27.2406 28.4716 27.0975L33.5857 26.3066C33.9572 26.2477 34.2812 26.0037 34.4472 25.6418L36.6683 20.8792C37.1189 19.9115 38.4152 19.9115 38.8657 20.8792Z" fill="#FFC048"/>
</svg>
